<svg width="150" height="150" viewBox="0 0 150 150" fill="none" xmlns="http://www.w3.org/2000/svg">
<g clip-path="url(#clip0_1_4)">
<path d="M0 0H150V150H0V0Z" fill="#FDFDFE"/>
<path d="M58.8728 4.80964C95.487 -3.59248 132.4 17.6002 143.605 53.4563C144.317 55.736 144.915 58.0496 145.397 60.3888C146.874 67.5507 147.249 74.896 146.511 82.171C146.03 86.9068 145.08 91.5834 143.675 96.1315C139.717 108.947 132.253 120.4 122.128 129.198C117.753 132.999 112.935 136.257 107.778 138.902C102.101 141.813 96.0626 143.956 89.8209 145.274C57.2461 152.155 24.2073 135.778 9.95839 105.687C1.014 86.7987 0.728297 64.9537 9.17564 45.8377C13.7919 35.3914 20.8296 26.1946 29.7065 19.0085C31.603 17.4731 33.5766 16.0354 35.6193 14.7006C42.726 10.057 50.5986 6.70837 58.8728 4.80964Z" fill="#9191DA"/>
<path d="M132.335 100.163C131.806 101.199 131.295 102.246 130.766 103.283C114.979 134.211 76.6293 146.795 45.7472 130.282C30.7481 122.326 19.5987 108.649 14.8292 92.354C10.3245 77.3578 12.0849 59.529 19.5822 45.8269C36.9519 14.0816 74.3561 3.47927 105.886 20.5731C108.316 22.251 110.593 23.6019 113.045 25.4076C118.285 29.2671 121.03 32.7738 125.111 37.5425C127.226 40.7184 129.731 44.3503 131.37 47.8208C137.331 60.4469 138.958 73.9081 136.263 87.5993C135.218 92.9096 133.957 95.2746 132.335 100.163Z" fill="#FDFDFE"/>
<path d="M73.0167 14.7606C106.255 13.693 134.071 39.7585 135.164 72.9955C136.257 106.233 110.212 134.069 76.9758 135.186C43.7043 136.305 15.832 110.227 14.7382 76.9545C13.6444 43.6822 39.7437 15.8295 73.0167 14.7606Z" fill="#0507B0"/>
<path d="M58.5281 44.4461C63.2966 43.8441 68.8573 46.167 71.6183 50.1476C72.9737 52.0737 73.8921 54.2723 74.3095 56.5901C74.6647 58.6522 74.6164 61.6125 74.6209 63.7629L74.6092 73.541L74.598 82.7375C74.5932 85.1878 74.7038 87.4728 74.2813 89.9427C72.6861 99.2679 64.1978 103.01 55.475 101.572C52.3132 101.051 48.6536 99.2896 46.8211 96.5558C45.5273 94.6258 44.9459 92.7028 47.1857 91.2798C47.7215 91.3109 48.3583 91.4004 48.9006 91.4626C51.5026 92.4661 53.8472 96.3788 57.4058 96.409C60.3311 96.4339 62.9511 95.6178 65.2017 93.7187C68.012 91.3472 67.4449 88.2841 67.6266 84.8171C65.4464 85.2855 62.2459 86.0471 60.1248 86.2298C56.341 86.5318 52.5917 85.3207 49.6995 82.8621C44.9837 78.8533 44.5141 73.8212 43.9849 68.0285C43.0184 57.4488 45.9722 45.3397 58.5281 44.4461Z" fill="#FDFDFE"/>
<path d="M67.4342 74.1825C67.2661 75.584 66.6229 76.777 65.6713 77.8071C64.1643 79.4501 62.0631 80.4223 59.8355 80.5075C55.189 80.6835 51.548 77.1888 51.5657 72.5396C51.5824 68.1416 51.6302 63.7396 51.5445 59.3408C51.4904 56.5699 51.8073 54.7116 53.7083 52.5946C56.6298 49.3414 62.2664 49.4736 65.3604 52.3743C66.5016 53.4438 67.3507 54.9267 67.3759 56.5053C67.6611 58.2626 67.684 62.1533 67.6879 63.9769C67.6948 67.1474 67.7874 71.0527 67.4342 74.1825Z" fill="#0507B0"/>
<path d="M93.5004 42.1853C93.2041 44.2106 93.2861 46.4026 93.2914 48.4576C93.3207 51.4561 93.3104 54.4551 93.2609 57.4534C93.4772 57.4283 93.7477 57.4288 93.9107 57.3064C100.483 57.8594 103.797 60.907 101.571 67.7758C104.622 67.5129 107.787 67.3066 110.309 69.467C114.663 73.196 113.504 81.1635 110.291 85.2129C106.891 89.4984 97.9975 87.4415 93.4173 86.4787L93.1387 86.7621C92.3165 86.8513 91.6271 86.6956 91.1292 86.9852C90.9357 87.4345 90.9713 87.7312 90.9751 88.219C90.5096 87.888 90.5247 87.2395 90.4641 87.2196C89.7226 86.9769 89.9695 87.2336 89.4107 86.6336C86.6423 87.0173 83.3399 87.8906 80.539 88.4944C81.0095 87.634 81.3066 85.9472 81.5537 84.9647C83.0065 79.1881 82.5882 75.6268 81.4485 69.9157C80.6872 66.1 80.5893 63.2887 82.8829 60.0366C82.8305 59.7274 83.2053 59.3095 83.4044 59.1047L83.2745 59.0106L82.3923 59.338L82.7086 58.6557C84.5361 56.0641 86.1681 53.1961 87.9372 50.555C89.8355 47.7209 91.7222 45.1082 93.5004 42.1853Z" fill="#FDFDFE"/>
<path d="M93.5004 42.1853C93.2041 44.2106 93.2861 46.4026 93.2914 48.4576C93.3207 51.4561 93.3104 54.4551 93.2609 57.4534C93.1107 58.1281 93.0807 63.2812 93.1088 64.1716C93.241 68.3432 92.8748 73.8596 93.1877 77.9621L92.6949 78.4024C92.358 78.4557 92.0284 78.4685 91.6882 78.4897C91.1452 78.23 91.3197 78.3617 91.0005 77.8028C90.9403 77.3272 90.8956 76.9371 90.8692 76.458C90.5112 76.0061 90.5232 76.1238 89.8661 75.9208C90.4424 75.2112 90.0271 59.6751 90.3234 57.203C89.0522 57.4093 87.8083 57.5955 86.5417 57.9239C85.7785 58.1218 83.1316 60.0229 82.8829 60.0366C82.8305 59.7274 83.2053 59.3095 83.4044 59.1047L83.2745 59.0106L82.3923 59.338L82.7086 58.6557C84.5361 56.0641 86.1681 53.1961 87.9372 50.555C89.8355 47.7209 91.7222 45.1082 93.5004 42.1853Z" fill="#FDFDFE"/>
<path d="M91.0211 57.1707C91.2448 61.326 90.9697 66.242 91.0792 70.45C91.1063 71.4899 91.1167 77.048 91.0005 77.8028C90.9403 77.3272 90.8956 76.9371 90.8692 76.458C90.5112 76.0061 90.5232 76.1238 89.8661 75.9208C90.4424 75.2112 90.0271 59.6751 90.3234 57.203C90.5842 57.2665 90.5943 57.2846 90.8131 57.4542L90.87 57.4992L91.0211 57.1707Z" fill="#515BD5"/>
<path d="M82.7086 58.6557C83.2381 58.6824 84.2941 57.9447 84.7718 57.6384C86.9064 56.2696 88.7473 54.8322 91.1042 53.8339C91.0616 54.9457 91.0339 56.0581 91.0211 57.1707L90.87 57.4992L90.8131 57.4542C90.5943 57.2846 90.5842 57.2665 90.3234 57.203C89.0522 57.4093 87.8083 57.5955 86.5417 57.9239C85.7785 58.1218 83.1316 60.0229 82.8829 60.0366C82.8305 59.7274 83.2053 59.3095 83.4044 59.1047L83.2745 59.0106L82.3923 59.338L82.7086 58.6557Z" fill="#3B39BB"/>
<path d="M93.1877 77.9621C92.8748 73.8596 93.241 68.3432 93.1088 64.1716C93.0807 63.2813 93.1107 58.1281 93.2609 57.4534C93.4773 57.4283 93.7477 57.4288 93.9107 57.3064C94.1005 61.9926 93.9814 66.6712 94.0148 71.352C94.0222 72.3873 93.9418 76.5138 94.0815 77.3417C93.722 77.7297 93.665 77.7611 93.1877 77.9621Z" fill="#515BD5"/>
<path d="M93.9895 79.2379C93.4657 79.2754 89.7088 79.6589 89.533 79.599C89.4113 78.8098 89.757 78.9067 89.8452 78.2048C89.9229 77.5843 89.4951 76.4883 89.8661 75.9208C90.5232 76.1238 90.5112 76.0061 90.8692 76.458C90.8956 76.9371 90.9403 77.3272 91.0005 77.8028C91.3197 78.3617 91.1452 78.23 91.6882 78.4897C92.0284 78.4685 92.358 78.4557 92.6949 78.4024C93.0983 79.7254 93.231 78.9012 93.9895 79.2379Z" fill="#4C4AC2"/>
<path d="M94.0815 77.3417C94.5615 76.9465 95.1603 76.4808 95.5983 76.0547C95.406 77.1182 95.454 78.8949 95.2923 79.3068C94.9022 79.5228 94.4706 79.3647 93.9895 79.2379C93.231 78.9012 93.0983 79.7254 92.6949 78.4024L93.1876 77.9621C93.665 77.7611 93.722 77.7297 94.0815 77.3417Z" fill="#3B39BB"/>
<path d="M89.4107 86.6336C90.9791 86.3673 91.8231 86.1192 93.4173 86.4787L93.1387 86.7621C92.3165 86.8513 91.6272 86.6956 91.1293 86.9852C90.9357 87.4345 90.9713 87.7313 90.9751 88.219C90.5096 87.888 90.5247 87.2395 90.4641 87.2196C89.7226 86.9769 89.9695 87.2336 89.4107 86.6336Z" fill="#3B39BB"/>
<path d="M75.0674 18.1856C77.6493 17.8085 80.0468 19.5996 80.4174 22.1824C80.788 24.7654 78.991 27.1584 76.4071 27.5225C73.8325 27.8854 71.4498 26.096 71.0805 23.5222C70.7112 20.9484 72.4947 18.5613 75.0674 18.1856Z" fill="#FDFDFE"/>
<path d="M75.1978 19.2393C77.186 18.9328 79.0506 20.2835 79.379 22.2684C79.7074 24.2533 78.3773 26.1327 76.3961 26.4829C75.0951 26.713 73.7707 26.2261 72.9284 25.2082C72.0861 24.1901 71.8557 22.7981 72.3253 21.5631C72.7948 20.3279 73.8918 19.4405 75.1978 19.2393Z" fill="#0507B0"/>
<path d="M90.9751 88.219C90.9713 87.7313 90.9357 87.4345 91.1293 86.9852C91.6272 86.6956 92.3165 86.8513 93.1387 86.7621C93.2612 88.6732 93.2925 90.2577 93.2878 92.1743C94.8453 94.1332 96.8209 95.7444 98.1116 97.729C97.4801 97.4156 97.0075 97.1556 96.4037 96.7916L96.065 96.8518C95.6193 96.4878 94.5929 95.5406 94.109 95.5075L93.9542 95.745C94.4707 96.2405 96.0864 97.8687 96.2218 98.419C96.4865 98.8827 97.6131 99.5697 97.5981 100.426C96.8167 100.367 94.2872 98.0767 93.3243 97.4383L93.1762 97.1738L92.9335 97.2127C92.7335 97.5542 92.5299 98.4672 92.4396 98.5978C92.0183 99.2071 91.4952 98.9593 91.124 100.032C90.7359 100.653 87.8827 103.376 87.2503 103.641L87.0502 103.531C86.6786 101.791 90.9394 99.7143 91.1279 98.018L90.918 97.8084C89.9205 97.7543 88.1914 100.325 87.1118 100.37L86.8969 99.872C87.0573 98.8736 86.9628 98.0818 86.8756 97.1085C87.4579 95.3706 89.9632 93.8238 90.975 92.2553L90.9751 88.219Z" fill="#FDFDFE"/>
<path d="M86.8756 97.1084L87.2219 97.3006C88.2366 96.6587 89.8958 94.7418 90.8604 94.6286L91.0619 94.7868C91.2368 96.3133 87.6343 98.3791 86.8969 99.872C87.0573 98.8736 86.9628 98.0818 86.8756 97.1084Z" fill="#3B39BB"/>
<path d="M96.2218 98.419L96.1033 98.3288C95.192 97.623 93.3504 95.9202 93.2036 94.7495L93.3592 94.5642C94.2255 94.6075 95.7022 96.1457 96.4037 96.7916L96.065 96.8518C95.6193 96.4878 94.5929 95.5406 94.109 95.5075L93.9542 95.745C94.4707 96.2405 96.0864 97.8687 96.2218 98.419Z" fill="#3B39BB"/>
<path d="M54.6423 118.271C57.1458 117.915 59.4609 119.664 59.8033 122.169C60.1455 124.674 58.3841 126.98 55.8769 127.308C53.3892 127.634 51.1053 125.89 50.7658 123.404C50.4262 120.918 52.1584 118.624 54.6423 118.271Z" fill="#FDFDFE"/>
<path d="M54.6861 119.258C59.3968 118.793 60.3441 124.856 55.9579 126.277C54.3199 126.356 52.8417 126.032 52.0342 124.427C51.6313 123.627 51.5738 122.697 51.875 121.853C52.366 120.485 53.4523 119.83 54.6861 119.258Z" fill="#0507B0"/>
<path d="M93.3514 118.642C95.6845 117.265 99.341 115.374 99.1802 120.003L99.4567 120.339C100.988 120.957 102.264 122.191 101.282 123.91C100.402 125.45 99.0499 125.983 97.4558 126.472C96.2329 124.255 94.7079 120.671 93.3514 118.642Z" fill="#FDFDFE"/>
<path d="M98.48 121.363C99.1825 121.302 100.287 121.703 100.313 122.505C100.347 123.518 99.2019 124.704 98.5617 125.436C97.992 124.614 96.9111 123.051 96.5609 122.113C97.1146 122.018 97.9414 121.605 98.48 121.363Z" fill="#3B39BB"/>
<path d="M95.4057 120.3C94.3146 118.058 97.2199 117.263 98.6561 119.561C97.6384 120.647 96.6226 121.897 95.4057 120.3Z" fill="#3B39BB"/>
<path d="M98.6561 119.561C98.8277 119.723 98.9769 119.884 99.1802 120.003L99.4567 120.339C98.9002 120.833 98.2945 120.569 98.0219 121.049L98.48 121.363C97.9414 121.605 97.1146 122.018 96.5609 122.113C95.9367 121.526 95.5173 121.152 95.4057 120.3C96.6226 121.897 97.6384 120.647 98.6561 119.561Z" fill="#F2EBF4"/>
<path d="M106.143 109.602C107.855 110.27 114.17 113.422 115.402 114.738L115.385 114.925C114.103 115.001 113.087 114.225 111.892 113.742L110.898 114.481C110.377 114.907 109.382 115.672 108.973 116.149C109.237 116.796 110.015 119.313 109.531 119.809C108.302 118.778 106.406 111.572 106.143 109.602Z" fill="#F1EEF6"/>
<path d="M107.643 111.438C108.81 111.954 109.706 112.698 110.697 113.481C110.222 113.763 109.758 114.062 109.306 114.38C109.049 114.638 108.875 114.81 108.646 115.1C108.365 114.504 107.833 112.206 107.643 111.438Z" fill="#3B39BB"/>
<path d="M109.306 114.38C110.106 114.524 110.157 114.157 110.898 114.481C110.377 114.907 109.382 115.672 108.973 116.149C108.92 115.712 108.616 115.729 108.646 115.1C108.875 114.81 109.049 114.638 109.306 114.38Z" fill="#F2EBF4"/>
<path d="M48.1491 34.3575C47.3801 33.3103 44.4475 29.3322 43.5224 28.0022C43.5321 27.9105 43.5418 27.8188 43.5516 27.7271C44.7292 27.0497 48.8139 33.3939 49.743 34.4622C48.1131 35.3931 43.539 39.2862 42.0108 40.7215C41.2542 39.4611 36.7714 33.8183 36.7213 33.2143C38.2815 32.8362 41.2999 37.7881 42.3337 39.0262C43.2639 38.2778 44.1647 37.2732 44.8481 36.7342L45.8004 36.2752C46.6159 35.5521 47.2799 35.0165 48.1491 34.3575Z" fill="#FDFDFE"/>
<path d="M106.077 32.7069C107.749 31.7534 108.805 31.1112 110.737 30.8379C110.445 32.776 110.044 34.0415 109.678 35.8591C109.447 36.8099 109.198 37.7839 108.985 38.7363C108.667 38.2714 108.516 38.0988 108.407 37.5439L108.329 37.5078C108.178 36.6954 106.86 35.9137 106.089 35.3147L105.281 34.3591C104.288 34.7786 102.523 36.2936 101.684 35.6919L101.647 35.3391C102.025 34.6506 105.207 33.1775 106.077 32.7069Z" fill="#F2EBF4"/>
<path d="M105.281 34.3591C104.288 34.7786 102.523 36.2936 101.684 35.6919L101.647 35.3391C102.025 34.6506 105.207 33.1775 106.077 32.7069C107.322 33.3749 106.903 32.6076 107.67 33.1816L106.177 34.0477L106.589 34.5009L106.614 34.657L106.089 35.3147L105.281 34.3591Z" fill="#FDFDFE"/>
<path d="M105.281 34.3591C105.511 34.2278 105.911 34.1271 106.177 34.0477L106.589 34.5009L106.614 34.657L106.089 35.3147L105.281 34.3591Z" fill="#D3D1F0"/>
<path d="M106.614 34.657C107.651 35.0054 107.988 35.075 108.724 35.901L109.346 35.5124C109.646 35.6417 109.531 35.5378 109.678 35.8591C109.447 36.8099 109.198 37.7839 108.985 38.7363C108.667 38.2714 108.516 38.0988 108.407 37.5439L108.329 37.5078C108.178 36.6954 106.86 35.9137 106.089 35.3147L106.614 34.657Z" fill="#ECE9F4"/>
<path d="M108.724 35.901L109.346 35.5124C109.646 35.6417 109.531 35.5378 109.678 35.8591C109.447 36.8099 109.198 37.7839 108.985 38.7363C108.667 38.2714 108.516 38.0988 108.407 37.5439C108.366 36.7831 108.46 36.6174 108.724 35.901Z" fill="#FDFDFE"/>
<path d="M107.67 33.1816C108.124 32.9958 108.844 32.5742 109.195 32.6786C109.214 32.914 109.238 33.0374 109.191 33.2738C108.958 34.2771 108.82 34.8754 108.724 35.901C107.988 35.075 107.651 35.0054 106.614 34.657L106.589 34.5009L106.177 34.0477L107.67 33.1816Z" fill="#3B39BB"/>
<path d="M107.67 33.1816C108.124 32.9958 108.844 32.5742 109.195 32.6786C109.214 32.914 109.238 33.0374 109.191 33.2738C108.306 33.1809 107.245 33.9378 106.589 34.5009L106.177 34.0477L107.67 33.1816Z" fill="#3B39BB"/>
<path d="M66.7087 125.351C66.9621 124.826 67.256 124.166 67.6184 123.717C69.9284 120.855 73.6332 121.065 75.0898 124.586L74.9452 124.978C74.1687 124.577 73.6261 123.853 72.8499 123.44C68.5819 121.168 65.4403 127.463 69.6321 129.775C71.2982 130.694 73.372 128.887 74.6728 128.948C74.9093 129.803 69.8569 133.947 66.7102 127.781C65.6542 127.299 65.7782 125.967 66.7087 125.351Z" fill="#FDFDFE"/>
<path d="M66.7102 127.781C65.6542 127.299 65.7782 125.967 66.7087 125.351C66.5389 126.377 66.5071 126.75 66.7102 127.781Z" fill="#0507B0"/>
<path d="M87.0078 120.492C87.2638 120.552 87.1471 120.494 87.3483 120.705C87.0964 121.932 85.4354 124.429 84.6719 125.463C86.6468 126.577 88.5192 128.514 89.7376 130.412C87.6166 129.455 85.747 127.498 84.0526 125.901C84.0524 126.475 84.0886 126.936 84.1377 127.509C84.3015 128.781 84.4102 129.264 84.179 130.558L83.9531 130.693C83.076 130.029 81.6126 122.438 82.1206 121.55L82.4776 121.46L82.7684 121.662C83.2607 122.736 82.6717 124.118 83.595 124.761C84.6573 124.377 85.2678 121.943 87.0078 120.492Z" fill="#FDFDFE"/>
<path d="M38.6014 112.369C37.8255 113.249 36.7308 115.003 35.7505 115.444C35.168 115.444 35.3454 115.523 34.9696 115.233C35.0555 114.418 40.2718 108.443 41.6675 108.385C42.0154 108.964 41.4781 110.557 41.3105 111.225C40.9433 112.782 40.4244 114.374 39.8853 115.88C39.3526 115.605 39.1857 115.778 38.578 115.955L39.123 114.304C38.9498 113.601 38.8437 113.328 39.273 112.689L38.9 112.778L38.6014 112.369Z" fill="#FDFDFE"/>
<path d="M40.2164 110.838L40.4005 110.476L40.6474 110.433C40.9059 110.714 41.0788 110.926 41.3105 111.225C40.9433 112.782 40.4244 114.374 39.8854 115.88C39.3526 115.605 39.1857 115.778 38.578 115.955L39.123 114.304C38.9498 113.601 38.8437 113.328 39.273 112.689L38.9 112.778L38.6014 112.369C39.0333 111.729 39.6095 111.29 40.2164 110.838Z" fill="#F2EBF4"/>
<path d="M40.2164 110.838C40.4402 111.727 39.5361 113.366 39.123 114.304C38.9498 113.601 38.8437 113.328 39.273 112.689L38.9 112.778L38.6014 112.369C39.0333 111.729 39.6095 111.29 40.2164 110.838Z" fill="#3B39BB"/>
<path d="M94.6934 21.6448C95.0128 22.0167 95.0704 22.4968 95.134 22.9667C95.272 23.9873 95.4655 31.1571 95.1066 31.6314L94.6551 31.5731C93.1629 30.4573 95.0287 24.7044 93.7477 23.8859C93.2487 23.995 92.935 24.4542 92.5844 24.8518C91.801 25.8552 89.2935 29.2635 88.0194 29.2172L87.9078 29.0086C88.4662 27.6176 93.3419 22.6288 94.6934 21.6448Z" fill="#FDFDFE"/>
<path d="M43.7477 114.408C44.4688 114.013 46.3682 113.063 47.0966 113.182C47.3241 113.471 47.4703 113.66 47.266 114.048C46.5067 115.49 42.7211 120.151 41.3952 120.559L41.1168 120.38C41.0714 119.399 43.5123 117.019 44.2973 116.22C44.7582 115.78 44.8843 115.556 45.2285 115.012C44.9055 114.976 44.6462 114.948 44.3247 114.883L44.2352 114.57L43.7477 114.408Z" fill="#FDFDFE"/>
<path d="M57.382 26.0046C57.1907 26.7551 58.3942 29.274 58.0418 30.5996L57.871 30.5678C56.9181 29.3285 54.5811 23.0284 55.2891 21.8474C56.361 22.2483 56.5934 24.2077 57.4217 25.1714L57.4475 25.2885L57.382 26.0046Z" fill="#FDFDFE"/>
<path d="M43.7477 114.408L44.2352 114.57L44.3247 114.883C44.6462 114.948 44.9055 114.976 45.2285 115.012C44.8843 115.556 44.7582 115.78 44.2973 116.22C44.0864 116.053 43.7202 115.865 43.4747 115.729C42.2975 116.226 39.3234 118.074 38.399 117.993C38.1472 117.529 38.4523 116.529 38.578 115.955C39.1857 115.778 39.3526 115.605 39.8854 115.88C39.9166 116.16 39.8572 116.046 40.0692 116.232C40.5814 116.129 43.0903 114.742 43.7477 114.408Z" fill="#F2EBF4"/>
<path d="M43.4747 115.729C44.1987 115.35 44.4458 115.233 45.2285 115.012C44.8843 115.556 44.7582 115.78 44.2973 116.22C44.0864 116.053 43.7202 115.865 43.4747 115.729Z" fill="#0507B0"/>
<path d="M40.6462 31.5059C40.415 31.0446 40.1834 30.6829 40.2917 30.1846C40.7644 30.1863 40.708 30.2738 41.1719 30.6486C42.7395 32.508 44.2412 34.4376 45.8004 36.2752L44.8481 36.7342C43.8921 36.0227 41.3304 32.6219 40.6462 31.5059Z" fill="#F2EBF4"/>
<path d="M40.6462 31.5059C40.415 31.0446 40.1834 30.6829 40.2917 30.1846C40.7644 30.1863 40.708 30.2738 41.1719 30.6486C41.0109 31.2873 41.1517 31.0784 40.6462 31.5059Z" fill="#FDFDFE"/>
<path d="M91.124 100.032C91.4952 98.9593 92.0183 99.2071 92.4396 98.5978C92.5299 98.4672 92.7336 97.5542 92.9335 97.2127L93.1762 97.1738L93.3243 97.4383C92.984 97.8683 93.0393 97.6679 93.099 98.1819C94.5541 100.454 96.6448 101.313 98.0121 104.172C96.2763 103.103 93.492 100.66 92.2588 99.0694C91.9548 99.3381 91.438 99.8216 91.124 100.032Z" fill="#F2EBF4"/>
<path d="M57.4475 25.2885C57.842 25.4146 57.8788 25.356 58.113 25.645C59.4467 26.1636 62.1091 27.4581 63.056 28.5272L63.1305 28.8381C61.937 29.2633 58.2428 26.9029 57.382 26.0046L57.4475 25.2885Z" fill="#FDFDFE"/>
<path d="M58.1634 23.4221C59.0188 21.3012 59.146 20.9728 61.1307 19.8479C60.3337 21.2722 59.6578 22.6975 58.9485 24.1651C58.528 23.8796 58.4689 23.8387 58.1634 23.4221Z" fill="#FDFDFE"/>
<path d="M108.329 37.5078L108.407 37.5439C108.516 38.0988 108.667 38.2714 108.985 38.7363C108.946 39.1588 108.693 40.3392 108.606 40.8138C107.984 40.5341 107.768 40.4996 107.49 39.9623C107.476 39.3732 108.063 38.2727 108.329 37.5078Z" fill="#FDFDFE"/>
<path d="M57.4217 25.1714C57.6691 24.8596 58.0049 23.8458 58.1634 23.4221C58.4689 23.8387 58.528 23.8796 58.9485 24.1651C58.6912 24.6482 58.4164 25.1966 58.113 25.645C57.8788 25.356 57.842 25.4146 57.4475 25.2885L57.4217 25.1714Z" fill="#F2EBF4"/>
<path d="M56.8356 12.3597L56.8995 12.6966C57.502 12.8865 61.0786 12.8628 61.5436 12.5056C63.0289 11.3646 63.9406 11.8929 65.6057 11.7792C66.1586 11.7414 67.4632 11.3545 68.179 11.2427L68.0631 11.2324C68.8078 11.1214 79.5999 11.0751 79.9932 11.1995L80.0558 11.5532C80.7822 11.4806 80.8182 11.4644 81.4838 11.6658C82.651 12.0189 83.9814 11.7964 85.2391 12.0232C89.6433 12.8177 93.9693 13.6387 98.0079 15.6608C98.4467 15.8805 99.1113 16.9907 99.6644 17.2002C100.96 17.7955 102.33 18.1913 103.594 18.8284C104.609 19.3393 104.689 19.8012 105.82 20.1806L105.952 20.4196L105.886 20.5731C74.356 3.47927 36.9519 14.0816 19.5822 45.8269C12.0849 59.529 10.3245 77.3578 14.8292 92.354C19.5987 108.649 30.7481 122.326 45.7472 130.282C76.6293 146.795 114.979 134.211 130.766 103.283C131.295 102.246 131.806 101.199 132.335 100.163C133.957 95.2746 135.218 92.9096 136.263 87.5993C138.958 73.9081 137.331 60.4469 131.37 47.8208C129.731 44.3503 127.226 40.7184 125.111 37.5425C125.306 37.5835 125.406 37.565 125.521 37.6881C126.1 38.2591 126.505 38.5689 126.993 39.2628C127.821 40.4401 128.285 41.7735 129.019 42.9927C129.721 44.1584 130.651 45.2673 131.416 46.4188C132.044 47.3635 132.372 47.6203 132.288 48.8597C132.288 48.8679 133.778 50.1643 133.867 50.3553C134.381 51.2793 134.896 52.7396 135.235 53.7286C136.362 57.0179 137.322 60.2736 137.817 63.7238C138.03 65.2085 137.999 67.161 138.158 68.7059C138.272 69.8105 138.381 70.969 138.495 72.0719C138.544 72.5495 138.035 73.8007 137.963 74.3374C137.835 75.2921 137.953 76.5759 137.924 77.5188C137.863 79.5691 138.49 83.6273 137.771 85.3818L137.521 85.6061C137.291 85.535 137.212 85.5177 136.997 85.3928C136.782 85.7127 136.83 86.0067 136.826 86.4057L136.96 86.5292L137.462 86.1605C137.843 86.6227 136.906 91.3249 136.66 92.1603C135.88 94.8054 134.582 97.3683 133.572 99.9237C133.477 100.161 132.656 101.238 132.467 101.52L132.096 101.533L132.098 101.598C132.106 101.824 132.099 101.86 132.186 102.077C131.84 102.973 131.258 104.518 130.695 105.537C129.796 107.161 127.977 110.208 126.569 111.487C126.512 111.54 125.942 111.53 125.933 111.546C125.396 112.481 124.768 113.658 124.217 114.556C124.159 114.652 123.103 114.827 122.882 115.56C122.791 115.865 122.653 116.749 122.531 116.886C122.243 117.208 120.866 117.818 120.629 118.109C119.919 118.98 120.388 119.679 119.181 120.338C117.675 120.238 118.087 122.208 116.512 122.745C114.768 122.563 115.032 124.151 113.722 124.927C113.762 124.904 112.724 125.127 112.68 125.138L112.978 125.324C112.87 125.787 111.069 127.499 110.503 127.818C108.287 129.067 105.98 130.695 103.679 131.756C103.079 132.033 100.584 132.329 99.7705 132.703C99.52 132.687 99.3592 133.582 99.3038 133.603C98.464 133.933 97.5847 134.567 96.7292 134.828C93.97 135.67 91.1185 136.532 88.3329 137.285C87.8023 137.429 86.7001 137.013 86.111 137.094C85.8467 137.113 85.1065 137.89 84.7295 137.931C79.2101 138.529 73.603 139.156 68.0729 138.311C67.4024 138.208 66.2747 138.764 65.578 138.649C64.587 138.272 58.483 137.523 57.8437 137.77L57.7302 137.768C57.6605 137.692 53.3004 136.333 52.9663 136.308C52.7317 136.452 52.5806 136.514 52.3276 136.624L51.9543 136.427L51.9284 136.276L52.6097 136.228L52.6185 136.123L51.715 136.127C51.4188 135.783 51.1969 135.482 50.7664 135.378L50.6128 135.672L50.3859 135.627L50.343 135.319L50.2002 135.236C50.0987 135.51 50.047 135.584 49.8914 135.834L49.5347 135.878C48.8213 135.602 48.4422 134.839 47.9827 134.649L48.1053 134.293C46.3702 133.393 44.5613 132.421 42.8108 131.532C42.4485 131.348 42.2224 131.537 41.8572 131.701C41.3342 131.677 41.2651 131.627 40.8226 131.37C40.8754 130.949 40.9844 130.972 41.3556 130.624C41.1321 130.331 39.6959 129.552 39.2994 129.538C39.0079 129.665 39.0992 129.932 38.5941 130.065C38.1823 129.952 36.9687 129.033 36.9069 128.661L36.9397 128.87L37.0066 128.518L36.858 128.484L36.7097 128.753L36.4614 128.624L36.4425 128.208L36.2767 128.299C35.6281 128.234 32.7937 125.59 32.2569 124.937C32.1034 125.046 32.0799 125.052 31.9052 125.125C31.5069 124.303 27.7097 121.302 27.1988 119.907C27.1459 119.763 26.4804 119.656 26.2175 119.315L26.4461 118.994C26.0323 118.908 25.813 118.882 25.4313 118.678C25.3488 118.426 25.068 117.491 24.9006 117.35C24.5019 117.015 23.3811 116.278 23.2931 115.783L23.7866 115.682C23.1766 115.482 22.949 115.478 22.6727 114.999C22.9179 114.664 23.0873 115.095 23.7467 114.872L23.7858 114.627C23.5951 114.642 22.5891 114.72 22.4169 114.607C21.543 114.034 20.4193 111.935 19.8737 111.016C19.7582 110.822 19.9011 110.011 19.68 109.506L19.6444 109.87L19.4331 109.945C17.3852 109.437 18.3668 107.396 17.2935 105.901C17.1403 105.688 16.8116 104.946 16.6857 104.673L16.9576 104.14L16.8085 103.908C16.6756 104.098 16.582 104.221 16.435 104.399C14.2589 102.552 14.6785 100 13.2428 97.5932C12.9154 97.0441 12.8798 95.4502 12.626 94.9312C11.7526 93.1455 11.2888 91.4458 10.9161 89.5031C10.0223 86.7518 9.9237 84.519 9.5182 81.6942C9.30297 80.1948 9.28305 78.8414 9.13684 77.3512L9.09638 78.1402C9.0361 77.804 8.86605 72.2178 8.94909 71.9246L9.07895 71.9854C9.19223 72.319 9.22674 73.4117 9.25155 73.8199C9.34598 72.773 9.44027 72.1176 8.95939 71.1595C8.89261 71.0265 8.92532 71.0735 9.0012 70.8656L9.41094 71.4482C9.55126 71.0158 9.24564 70.5438 9.25715 70.055C9.32023 67.3764 10.1846 64.7839 10.5577 62.1375C10.5577 62.1375 10.8279 61.8245 10.8537 61.7946C11.1386 62.2856 11.0282 62.8534 10.9746 63.4182L11.1304 63.4541C11.0089 64.0414 11.139 64.3885 11.056 64.7438L11.3206 65.087C11.6042 64.1203 11.5672 62.4877 11.814 61.4408C12.4289 58.8328 13.1188 56.3413 13.9342 53.7935L13.8254 53.8992L13.851 53.5778L14.1851 53.3686C14.4943 52.8415 14.678 52.2045 14.8061 51.6114C17.4267 45.6328 18.6442 42.6904 22.6342 37.2085C26.2547 32.2345 29.7605 28.3893 34.5907 24.4841C35.2866 23.9213 35.9528 23.6134 36.6779 23.1321C37.2015 22.7846 37.5067 22.0194 38.2227 21.8946L38.3558 22.0258C37.6356 23.222 36.126 23.7806 35.0549 24.8404C35.8671 24.8676 35.6626 24.7471 36.2152 24.3589C37.4328 23.5036 38.3136 23.5299 39.0073 22.011C39.0395 21.9406 40.5261 21.322 40.7868 21.2131C40.7404 21.0684 40.6929 20.924 40.6447 20.7798L41.6373 20.6256L41.6723 20.4586L41.2831 20.2408C41.7192 19.8684 42.1255 20.1495 42.9958 20.1464L43.1379 19.8489L42.6199 19.72L42.6773 19.6037L44.1249 19.3104C43.9128 19.2294 43.9125 19.2183 43.7311 19.0781C44.289 18.5016 44.5192 18.9309 45.0305 18.4252L44.5497 18.2137L44.6021 18.1352L45.0423 18.1008L44.7543 18.0209L44.6788 17.8789C45.417 17.5345 45.3174 17.9729 46.1978 17.8031L45.9967 17.687C45.8761 17.4335 45.9075 17.5274 46.034 17.1697C47.406 15.9978 48.5808 16.8697 49.2507 16.0916C48.8618 15.5808 47.2298 16.2057 46.6711 15.8837C47.194 15.4797 47.0684 15.7008 47.1502 15.0659L47.3429 14.9771C47.6457 15.0769 47.8746 15.1576 48.1676 15.283C49.1127 14.7324 48.283 15.4028 49.0847 15.0299C49.1215 14.7747 49.1068 14.7855 49.2642 14.5844C49.3726 14.7666 49.5489 14.8702 49.7225 14.9993C50.283 14.8216 51.7453 14.2216 52.2057 13.9062L52.2542 13.5677C53.0735 12.6337 54.6003 13.7428 56.0552 12.1343C56.3159 12.2075 56.5761 12.2827 56.8356 12.3597Z" fill="#3B39BB"/>
<path d="M70.4767 9.46714C70.7653 9.38704 71.2383 9.28549 71.525 9.31493C72.7002 9.43571 77.9237 8.96908 78.6519 9.41088L78.8783 9.31283L78.9365 9.42327L78.6426 9.59378L78.8963 9.47961L78.5689 9.73653C78.8492 9.83306 79.1801 9.65905 79.4537 9.52673C83.809 10.4875 89.5327 10.0427 93.0015 11.8056L93.4433 11.6369C95.7044 12.6631 97.9658 12.7789 99.6623 13.5304C109.19 17.7514 117.993 23.4801 124.767 31.4958C126.64 33.7209 128.566 36.2295 130.087 38.7018C130.289 39.0302 131.623 40.7783 131.476 40.4782C133.401 44.4105 135.393 48.3145 137.07 52.3494C137.26 52.806 137.237 53.719 137.612 54.5061L137.391 54.6489C137.296 55.1905 138.348 55.5763 137.603 56.0517C137.8 56.3379 138.599 57.5534 138.644 57.8067C139.035 60.0431 139.669 62.2901 139.827 64.5514C139.85 64.8763 140.192 65.1473 140.203 65.3523C140.245 66.1107 139.813 66.5643 140.257 67.3068L140.42 66.754C140.617 67.0209 140.554 66.9527 140.576 67.3452C140.774 67.0283 140.742 62.3651 140.862 62.1321C141.826 62.9711 141.938 85.2444 141.263 87.2348L141.181 87.1683L141.21 85.6734L141.065 85.5816C140.982 85.9888 140.968 88.4795 141.04 88.8921L140.426 89.343C140.456 89.1132 140.608 88.9605 140.751 88.7887C140.818 88.1263 140.854 87.6508 140.856 86.9808C140.859 85.865 140.298 84.0713 140.742 83.104L140.702 83.2189L140.554 82.8775C140.233 83.2271 139.958 86.4365 139.771 87.3618C138.792 92.2028 137.738 96.5354 135.726 101.101C133.23 106.634 130.048 111.832 126.254 116.571C125.598 117.391 124.62 118.745 123.886 119.39C122.483 120.623 121.169 120.688 120.154 122.455C119.953 122.804 116.819 125.353 116.71 125.715C116.476 126.209 116.286 126.566 116.013 127.04L116.133 127.12C116.751 126.811 118.322 125.746 118.715 125.7L118.86 125.838C118.497 126.411 117.554 126.976 117.049 127.492C113.245 131.385 108.052 134.304 103.031 136.354C100.809 137.261 97.6383 137.804 95.7577 139.371L95.6782 139.382C94.5084 139.555 87.8766 141.072 87.215 140.865L87.0896 140.673C87.6316 140.423 88.5974 139.916 89.1485 139.87C88.8343 139.784 84.2802 140.151 83.7891 140.284L83.4687 140.146C83.0836 140.12 82.523 140.134 82.1224 140.131L82.0611 140.06L82.7795 139.904L82.8234 139.717C82.2023 139.598 81.7772 139.656 81.1459 139.699C80.7902 139.503 80.0731 139.575 79.6671 139.6C76.4306 139.794 73.2138 139.601 69.9809 139.557C69.7053 139.553 69.4336 139.714 69.2183 139.874C67.2828 139.241 59.7038 138.808 57.8438 137.77C58.483 137.523 64.587 138.272 65.578 138.649C66.2747 138.764 67.4024 138.208 68.0729 138.311C73.603 139.156 79.2101 138.529 84.7295 137.931C85.1065 137.89 85.8467 137.113 86.111 137.094C86.7001 137.013 87.8023 137.429 88.3329 137.285C91.1186 136.532 93.97 135.67 96.7292 134.828C97.5847 134.567 98.464 133.933 99.3038 133.603C99.3592 133.582 99.52 132.687 99.7705 132.703C100.584 132.329 103.079 132.033 103.679 131.756C105.98 130.695 108.287 129.067 110.503 127.818C111.069 127.499 112.87 125.787 112.978 125.324L112.68 125.138C112.724 125.127 113.762 124.904 113.722 124.927C115.032 124.151 114.768 122.563 116.512 122.745C118.087 122.208 117.675 120.238 119.181 120.338C120.388 119.679 119.919 118.98 120.629 118.109C120.866 117.818 122.243 117.208 122.531 116.886C122.653 116.749 122.791 115.865 122.882 115.56C123.103 114.827 124.159 114.652 124.217 114.556C124.768 113.658 125.396 112.481 125.933 111.546C125.942 111.53 126.512 111.54 126.569 111.487C127.977 110.208 129.796 107.161 130.695 105.537C131.258 104.518 131.84 102.973 132.186 102.077C132.099 101.86 132.106 101.824 132.098 101.598L132.096 101.533L132.467 101.52C132.656 101.238 133.477 100.161 133.573 99.9237C134.582 97.3683 135.88 94.8054 136.66 92.1604C136.906 91.325 137.843 86.6227 137.462 86.1605L136.96 86.5292L136.826 86.4057C136.83 86.0067 136.782 85.7127 136.997 85.3928C137.212 85.5177 137.291 85.535 137.521 85.6061L137.771 85.3818C138.49 83.6273 137.863 79.5691 137.924 77.5188C137.953 76.5759 137.836 75.2921 137.963 74.3375C138.035 73.8007 138.544 72.5495 138.495 72.0719C138.381 70.969 138.272 69.8105 138.158 68.7059C137.999 67.161 138.03 65.2085 137.817 63.7238C137.322 60.2736 136.362 57.0179 135.235 53.7286C134.896 52.7397 134.381 51.2794 133.867 50.3553C133.778 50.1643 132.288 48.8679 132.288 48.8597C132.372 47.6203 132.044 47.3635 131.416 46.4188C130.651 45.2673 129.721 44.1585 129.019 42.9927C128.285 41.7735 127.821 40.4401 126.993 39.2628C126.505 38.5689 126.1 38.2591 125.521 37.6881C125.406 37.565 125.306 37.5835 125.111 37.5425C121.03 32.7738 118.285 29.2671 113.045 25.4076C110.593 23.6019 108.316 22.251 105.886 20.5731L105.952 20.4196L105.82 20.1806C104.689 19.8012 104.609 19.3393 103.594 18.8284C102.33 18.1913 100.96 17.7955 99.6645 17.2002C99.1113 16.9907 98.4467 15.8805 98.0079 15.6608C93.9693 13.6387 89.6433 12.8177 85.2391 12.0232C83.9814 11.7964 82.651 12.0189 81.4838 11.6658C80.8182 11.4644 80.7822 11.4806 80.0558 11.5532L79.9932 11.1995C79.5999 11.0751 68.8078 11.1214 68.0631 11.2324L68.179 11.2427C67.4632 11.3545 66.1586 11.7414 65.6057 11.7792C63.9406 11.8929 63.0289 11.3646 61.5437 12.5056C61.0786 12.8628 57.502 12.8865 56.8995 12.6966L56.8356 12.3597C57.503 12.1294 58.6699 12.1613 59.0461 11.5954L58.9165 11.2774C59.1151 11.2947 61.8328 10.8049 62.0221 10.7322C63.2377 10.2652 69.9148 9.92389 70.4767 9.46714Z" fill="#4C4AC2"/>
<path d="M116.71 125.715C116.476 126.209 116.286 126.566 116.013 127.04L116.133 127.12C116.751 126.811 118.322 125.746 118.715 125.7L118.86 125.838C118.497 126.411 117.554 126.976 117.049 127.492C113.245 131.385 108.052 134.304 103.031 136.354C100.809 137.261 97.6383 137.804 95.7577 139.371L95.6782 139.382C94.5084 139.555 87.8766 141.072 87.215 140.865L87.0896 140.673C87.6316 140.423 88.5974 139.916 89.1485 139.87C88.8343 139.784 84.2802 140.151 83.7891 140.284L83.4687 140.146C83.0836 140.12 82.523 140.134 82.1224 140.131L82.0611 140.06L82.7795 139.904L82.8234 139.717C83.8636 139.515 84.8877 139.452 85.9329 139.216C86.7892 138.58 92.471 138.471 93.8473 137.796C94.4763 137.487 96.0664 137.517 96.7913 137.505L96.8805 137.405C96.4005 137.369 95.9339 137.327 95.4602 137.233C96.9792 136.556 98.8116 136.196 100.332 135.467C101.211 135.045 100.632 135.527 101.305 135.484C101.509 134.554 101.916 135.119 102.769 135.035L102.636 134.735L102.639 134.943L102.59 134.789L103.051 134.553L102.58 134.478L102.625 134.286C103.975 133.662 106.227 132.421 107.537 131.896C109.193 131.234 115.968 125.832 116.71 125.715Z" fill="#6C6CCD"/>
<path d="M82.7795 139.904C83.4223 139.792 83.7781 139.682 84.3977 139.865L84.3548 139.945C84.1214 140.007 83.6916 140.138 83.4687 140.146C83.0836 140.12 82.523 140.134 82.1224 140.131L82.0611 140.06L82.7795 139.904Z" fill="#515BD5"/>
<path d="M70.4767 9.46714C70.7653 9.38704 71.2383 9.28549 71.525 9.31493C72.7002 9.43571 77.9237 8.96908 78.6519 9.41088C76.7306 10.2436 72.3848 10.2944 70.4767 9.46714Z" fill="#515BD5"/>
<path d="M81.1459 139.699L81.1088 139.575C81.5531 139.224 85.1476 139.044 85.9329 139.216C84.8877 139.452 83.8636 139.515 82.8234 139.717C82.2023 139.598 81.7772 139.656 81.1459 139.699Z" fill="#515BD5"/>
<path d="M58.8728 4.80964C95.487 -3.59248 132.4 17.6002 143.605 53.4563C144.317 55.736 144.915 58.0496 145.397 60.3888C146.874 67.5507 147.249 74.896 146.511 82.171C146.03 86.9068 145.08 91.5834 143.675 96.1315C139.717 108.947 132.253 120.4 122.128 129.198C121.135 129.112 116.483 135.046 113.892 133.68C114.109 133.445 114.348 133.09 114.618 133.083C114.656 133.08 114.694 133.076 114.732 133.072C116.953 131.422 119.363 129.053 121.142 127.038C122.417 125.594 123.678 124.615 124.837 123.41C130.134 117.904 134.778 111.519 137.932 104.545C139.056 102.061 139.876 98.7297 141.042 96.1557C141.416 95.3325 141.745 94.0031 142.228 93.2719L142.624 93.2512C143.371 92.6275 143.79 89.0829 144.086 87.7975C144.613 86.8806 144.841 82.5306 144.918 81.2994C144.782 80.6342 145.325 78.7639 145.241 78.2436C144.968 76.5658 145.337 74.8017 145.252 73.1536C144.959 67.4051 144.407 59.2822 141.981 54.0762L141.884 54.0927C141.904 55.1087 142.725 55.4631 142.575 56.1129C142.302 55.9595 141.964 55.7561 141.68 55.6422C141.625 56.0978 141.773 56.1439 142.06 56.6194C141.991 57.1569 141.787 57.7099 141.618 58.2283L141.503 58.1455C140.47 56.0228 141.157 57.2175 141.254 55.7178L141.155 55.6277L140.988 55.8422L140.799 55.8379C141.001 55.263 141.118 55.432 140.981 54.8247C140.828 54.1463 140.631 53.1998 140.989 52.5891C139.533 50.5475 140.079 48.2276 139.06 46.0206C138.587 44.996 137.399 44.2778 137.15 43.2208C137.032 42.7178 137.065 42.0066 136.687 41.6339L136.314 41.803L136.129 41.6026C136.138 41.3875 136.209 41.2792 136.322 41.1056L135.496 40.6953C135.155 40.1049 135.161 39.44 134.968 38.8671C134.78 38.3068 133.997 37.1045 133.641 36.5868C133.199 36.0716 132.614 34.6292 132.183 34.1909C130.76 32.7447 129.504 30.6393 128.217 29.1782C125.704 26.325 122.654 23.8594 120.034 21.1068C119.665 20.7193 118.829 20.4801 118.387 20.1557C117.586 19.4111 116.802 18.6294 115.924 17.9609C113.713 16.4632 111.197 14.8566 108.865 13.5758C106.479 12.2655 103.79 11.162 101.294 10.0905C100.188 9.61531 97.8932 9.02366 96.9807 8.5363C96.9782 8.42378 96.9879 8.32308 97.0129 8.21331C96.5906 8.26201 96.1718 8.35257 95.7812 8.1946L95.9877 8.03917L95.874 7.84025C95.2479 7.77621 95.7703 7.95715 95.1306 8.08008L94.8902 7.85905L95.3455 7.54696L95.2752 7.37943C93.8575 6.68838 90.6352 6.34529 88.9686 6.01862C86.8818 5.60956 84.6152 5.25192 82.5091 4.96359C82.1584 4.96633 81.6233 4.70694 81.3091 4.70197C76.2379 4.62193 71.1318 4.39858 66.0769 5.04913C62.6892 5.48511 59.3788 6.18397 56.0319 6.75951L56.0062 6.47867C56.8462 5.74852 57.855 5.41989 58.8728 4.80964Z" fill="#C5C4EC"/>
<path d="M144.146 91.5122C144.441 90.575 144.341 89.5856 144.756 88.4931C146.434 88.043 145.528 83.059 146.511 82.171C146.03 86.9068 145.08 91.5833 143.675 96.1315C143.223 95.1507 144.406 92.6643 144.146 91.5122Z" fill="#D3D1F0"/>
<path d="M143.605 53.4563C144.317 55.736 144.915 58.0496 145.397 60.3888C144.303 59.5815 143.526 54.8587 143.605 53.4563Z" fill="#D3D1F0"/>
<path d="M9.17564 45.8377C9.32592 47.9304 6.28987 50.4122 6.93368 55.276L6.75995 55.49L7.0724 55.6337C7.16592 56.3704 6.70908 57.9491 6.59949 58.743C6.38171 60.3205 5.67479 64.6115 5.84785 65.948C6.01417 66.8052 5.35884 70.9466 5.31481 72.0831C5.09803 78.5647 5.72664 85.0469 7.18478 91.366C7.39232 92.2613 7.50225 93.2619 7.85414 94.0937C8.11771 94.2122 8.19418 94.2447 8.42891 94.4104C8.82657 95.7439 8.58282 96.9645 9.32702 98.1987C9.50751 98.498 9.641 98.9868 9.79483 99.313C11.1444 103.204 12.9048 106.816 15.0628 110.319C15.7052 111.344 16.2271 112.679 16.9386 113.642C23.2077 122.123 31.0635 129.714 40.2497 134.958C51.2549 141.241 63.767 144.767 76.4873 144.336C78.0678 144.282 79.6726 144.35 81.2502 144.164C82.0482 144.09 85.1559 143.69 85.661 143.719C87.3684 143.752 89.5736 143.501 91.3005 143.355C92.2859 143.271 92.883 143.032 93.9478 143.008C93.7944 143.748 90.5196 144.597 89.8209 145.274C57.2461 152.155 24.2073 135.778 9.95839 105.687C1.014 86.7987 0.728297 64.9537 9.17564 45.8377Z" fill="#C5C4EC"/>
<path d="M35.6193 14.7006C42.726 10.057 50.5986 6.70837 58.8728 4.80964C57.855 5.41989 56.8462 5.74852 56.0062 6.47867L56.0319 6.75951C57.4129 7.51901 61.2832 6.06589 62.8138 6.49365C62.7176 6.66341 59.9588 7.82547 59.6307 7.85316L59.1202 8.42867C60.5761 8.79292 65.8345 8.57597 66.1794 8.83191C65.6436 9.04711 64.1435 9.76474 63.6946 9.79219C62.9569 9.8373 58.8395 10.631 58.3184 10.4873C57.5256 10.7538 54.2101 11.4778 53.4334 11.4831L53.4259 11.4938L53.3566 10.9305L53.3583 10.9707C51.4266 10.0914 44.775 13.9577 42.3142 13.8884C42.2521 13.8866 38.8062 15.8996 38.3046 16.189C31.9165 19.8125 26.2028 24.5131 21.4163 30.0834C20.2249 31.4609 19.571 32.776 18.1392 34.0578C17.5151 34.6165 16.3998 37.512 15.5628 38.1025L15.6476 38.3143L15.4698 38.6716L15.6558 38.9295C15.3107 39.0762 15.057 39.1872 14.7136 38.9008C13.1931 41.851 11.5451 44.808 10.5196 47.9694C10.0479 49.378 9.58035 50.7932 9.06634 52.1855C8.94074 52.5256 8.92694 54.0262 8.83671 54.1595C7.77965 55.7209 10.2162 57.7872 8.30458 59.0364C7.72087 61.4202 7.25493 63.831 6.90849 66.2606C7.07959 66.8818 6.81836 69.3226 6.69086 70.0712L6.52927 70.1175L6.48102 69.8618C6.61544 69.5621 6.68739 65.6736 6.48222 65.2252C6.10765 65.3197 6.10819 65.5165 5.84784 65.948C5.67479 64.6115 6.38171 60.3205 6.59948 58.743C6.70907 57.9491 7.16591 56.3704 7.07239 55.6337L6.75994 55.49L6.93367 55.276C6.28986 50.4122 9.32591 47.9304 9.17563 45.8377C13.7919 35.3914 20.8296 26.1946 29.7064 19.0085C31.603 17.4731 33.5766 16.0354 35.6193 14.7006Z" fill="#C5C4ED"/>
<path d="M35.6193 14.7006C42.726 10.057 50.5986 6.70837 58.8728 4.80964C57.855 5.41989 56.8462 5.74852 56.0062 6.47867L56.0319 6.75951C57.4129 7.51901 61.2832 6.06589 62.8138 6.49365C62.7176 6.66341 59.9588 7.82547 59.6307 7.85316L59.1202 8.42867C60.5761 8.79292 65.8345 8.57597 66.1794 8.83191C65.6436 9.04711 64.1435 9.76474 63.6946 9.79219C62.9569 9.8373 58.8395 10.631 58.3184 10.4873C59.0735 9.97116 60.8353 9.92887 61.3371 9.67266C60.4661 9.33397 53.8837 10.1084 52.5671 10.2376C50.263 10.6865 46.8688 12.0646 44.5582 12.7828C43.5814 13.0863 42.5634 13.6136 41.5075 13.8995C40.594 14.3429 39.8662 14.7362 38.8271 14.7807C36.6359 15.9533 35.0861 16.915 32.6257 17.5644C31.5623 17.845 30.9684 19.0384 29.7064 19.0085C31.603 17.4731 33.5766 16.0354 35.6193 14.7006Z" fill="#BCBCE9"/>
<path d="M35.6193 14.7006C38.3029 14.4966 42.5502 11.1925 45.0013 10.9632C44.5661 11.3855 39.1844 13.8441 38.8271 14.7807C36.6359 15.9533 35.0861 16.915 32.6257 17.5644C31.5623 17.845 30.9684 19.0384 29.7064 19.0085C31.603 17.4731 33.5766 16.0353 35.6193 14.7006Z" fill="#C5C4EC"/>
<path d="M41.5075 13.8995C41.5915 13.8246 41.6782 13.7529 41.7677 13.6846C43.7273 12.1942 48.8569 10.714 51.2332 9.5032C51.502 9.36626 52.3916 9.27359 52.7203 9.31771L52.6438 9.52528L52.0532 9.62436C52.6232 9.47799 54.1696 9.10557 54.7005 9.25175C53.9829 9.5659 53.2715 9.8946 52.5671 10.2376C50.263 10.6865 46.8688 12.0646 44.5582 12.7828C43.5814 13.0863 42.5634 13.6136 41.5075 13.8995Z" fill="#A4A4E0"/>
<path d="M59.1202 8.42866C58.8473 8.44715 58.7985 8.46621 58.5429 8.34949C58.8253 8.05829 59.2289 7.98184 59.6307 7.85316L59.1202 8.42866Z" fill="#A4A4E0"/>
<path d="M6.9085 66.2606C6.62152 65.0284 7.10379 60.3735 7.66613 59.211C8.04756 58.9507 7.87689 58.9904 8.30458 59.0364C7.72087 61.4202 7.25493 63.831 6.9085 66.2606Z" fill="#A4A4E0"/>
<path d="M95.7577 139.371C97.0236 139.819 101.647 139.075 103.171 138.818C104.032 138.672 106.868 137.14 107.805 137.459C107.908 137.812 107.84 137.764 107.619 138.171L107.818 138.062C107.967 138.337 107.957 138.202 107.89 138.476L107.778 138.902C102.101 141.813 96.0625 143.956 89.8208 145.274C90.5196 144.597 93.7944 143.748 93.9478 143.008C92.883 143.032 92.2859 143.271 91.3005 143.355C89.5736 143.501 87.3684 143.752 85.661 143.719C86.7746 142.985 88.7963 142.544 89.6985 141.924L89.6219 141.798C88.6736 141.672 86.0588 141.934 84.9828 142.022L84.9453 141.537C85.3941 141.399 85.8176 141.304 86.1917 141.023C85.7266 140.852 84.8416 140.949 84.307 140.972C84.2637 140.824 84.2785 140.542 84.2774 140.373L83.7891 140.284C84.2802 140.151 88.8343 139.784 89.1485 139.87C88.5974 139.916 87.6316 140.423 87.0896 140.673L87.215 140.865C87.8766 141.072 94.5084 139.555 95.6782 139.382L95.7577 139.371Z" fill="#C4C7EF"/>
<path d="M107.619 138.171L107.818 138.062C107.967 138.337 107.957 138.202 107.89 138.476C107.442 138.635 107.203 138.721 106.733 138.818L106.549 138.696C106.901 138.33 107.131 138.307 107.619 138.171Z" fill="#D3D1F0"/>
<path d="M91.736 141.972C91.9862 141.957 92.2236 141.962 92.4735 141.964L92.3657 142.149C92.0329 142.223 91.8924 142.253 91.5526 142.268L91.736 141.972Z" fill="#A4A4E0"/>
<path d="M69.2183 139.874C69.4336 139.714 69.7053 139.553 69.9809 139.557C73.2138 139.601 76.4306 139.794 79.6671 139.6C80.0731 139.575 80.7902 139.503 81.1459 139.699C81.7772 139.656 82.2023 139.598 82.8234 139.717L82.7795 139.904L82.0611 140.06L82.1224 140.131C82.523 140.134 83.0836 140.12 83.4687 140.146L83.7891 140.284L84.2774 140.373C84.2785 140.542 84.2637 140.824 84.307 140.972C84.8416 140.949 85.7266 140.852 86.1917 141.023C85.8176 141.304 85.3941 141.399 84.9453 141.537L84.9828 142.022C77.9095 143.57 71.6479 143.452 64.8718 140.834C65.5589 140.46 69.67 141.128 70.8674 140.116L70.8177 140.009C70.3869 140.02 69.6718 139.923 69.2183 139.874Z" fill="#6464CB"/>
<path d="M84.307 140.972C84.8416 140.949 85.7266 140.852 86.1917 141.023C85.8176 141.304 85.3941 141.399 84.9453 141.537C83.9884 141.618 82.3642 141.599 81.3825 141.575C82.375 141.406 83.3247 141.191 84.307 140.972Z" fill="#6C6CCD"/>
<path d="M72.9097 141.276C74.1845 141.264 75.5625 141.24 76.8308 141.301L76.7492 141.427C75.5896 141.39 73.9605 141.713 72.9097 141.276Z" fill="#6C6CCD"/>
<path d="M10.8537 61.7946C10.7326 61.1181 11.2523 59.0005 11.9998 58.5891C12.0649 59.1164 11.3458 63.1816 11.1304 63.4541L10.9746 63.4182C11.0282 62.8534 11.1386 62.2856 10.8537 61.7946Z" fill="#515BD5"/>
<path d="M140.426 89.343L141.04 88.8921C140.825 90.9202 139.769 93.5007 139.197 95.4281L139.062 95.5106C138.889 94.7098 140.581 90.6712 140.399 89.493C140.408 89.4431 140.417 89.393 140.426 89.343Z" fill="#6C6CCD"/>
<path d="M56.0552 12.1343C56.4639 11.6828 58.2248 11.3848 58.9165 11.2774L59.0461 11.5954C58.6699 12.1612 57.503 12.1294 56.8356 12.3597C56.5761 12.2827 56.3159 12.2075 56.0552 12.1343Z" fill="#515BD5"/>
<path d="M14.1851 53.3687L13.8963 53.2951L13.8324 53.1088C13.9962 52.3216 14.1252 51.5077 14.6503 50.8831L14.7779 50.9348L14.8061 51.6114C14.678 52.2045 14.4943 52.8415 14.1851 53.3687Z" fill="#4C4AC2"/>
<path d="M134.994 105.527L135.087 105.592C135.415 106.763 131.476 112.299 130.617 113.435C130.288 113.869 129.985 113.864 129.516 113.888C130.721 111.931 134.079 107.502 134.506 105.542L134.709 105.674L134.994 105.527Z" fill="#6C6CCD"/>
<path d="M93.2005 8.25484C94.3411 8.38565 95.6175 8.86174 96.7318 9.21936C95.8584 9.42674 93.9727 8.69805 93.2005 8.25484Z" fill="#A4A4E0"/>
<path d="M92.3117 7.4575C92.5629 7.45871 92.8231 7.48116 93.0747 7.49842L93.3164 7.79581C92.8515 7.83954 92.7885 7.70401 92.3117 7.4575Z" fill="#A4A4E0"/>
</g>
<defs>
<clipPath id="clip0_1_4">
<rect width="150" height="150" fill="white"/>
</clipPath>
</defs>
</svg>
